<svg xmlns:xlink="http://www.w3.org/1999/xlink" version="1.1" class="highcharts-root" style="font-family:&quot;lucida grande&quot;, &quot;lucida sans unicode&quot;, arial, helvetica, sans-serif;font-size:12px;" xmlns="http://www.w3.org/2000/svg" width="1410" height="800" viewBox="0 0 1410 800"><desc>Created with Highcharts 5.0.11</desc><defs><clipPath id="highcharts-ykhdgsn-8"><rect x="0" y="0" width="1333" height="651" fill="none"></rect></clipPath><linearGradient x1="0" y1="0" x2="0" y2="1" id="highcharts-ykhdgsn-9"><stop offset="0" stop-color="#7cb5ec" stop-opacity="1"></stop><stop offset="1" stop-color="rgb(124,181,236)" stop-opacity="0"></stop></linearGradient></defs><rect fill="#ffffff" class="highcharts-background" x="0" y="0" width="1410" height="800" rx="0" ry="0"></rect><rect fill="none" class="highcharts-plot-background" x="67" y="71" width="1333" height="651"></rect><g class="highcharts-grid highcharts-xaxis-grid "><path fill="none" class="highcharts-grid-line" d="M 79.5 71 L 79.5 722" opacity="1"></path><path fill="none" class="highcharts-grid-line" d="M 193.5 71 L 193.5 722" opacity="1"></path><path fill="none" class="highcharts-grid-line" d="M 306.5 71 L 306.5 722" opacity="1"></path><path fill="none" class="highcharts-grid-line" d="M 420.5 71 L 420.5 722" opacity="1"></path><path fill="none" class="highcharts-grid-line" d="M 534.5 71 L 534.5 722" opacity="1"></path><path fill="none" class="highcharts-grid-line" d="M 647.5 71 L 647.5 722" opacity="1"></path><path fill="none" class="highcharts-grid-line" d="M 761.5 71 L 761.5 722" opacity="1"></path><path fill="none" class="highcharts-grid-line" d="M 875.5 71 L 875.5 722" opacity="1"></path><path fill="none" class="highcharts-grid-line" d="M 988.5 71 L 988.5 722" opacity="1"></path><path fill="none" class="highcharts-grid-line" d="M 1102.5 71 L 1102.5 722" opacity="1"></path><path fill="none" class="highcharts-grid-line" d="M 1215.5 71 L 1215.5 722" opacity="1"></path><path fill="none" class="highcharts-grid-line" d="M 1329.5 71 L 1329.5 722" opacity="1"></path></g><g class="highcharts-grid highcharts-yaxis-grid "><path fill="none" stroke="#e6e6e6" stroke-width="1" class="highcharts-grid-line" d="M 67 722.5 L 1400 722.5" opacity="1"></path><path fill="none" stroke="#e6e6e6" stroke-width="1" class="highcharts-grid-line" d="M 67 650.5 L 1400 650.5" opacity="1"></path><path fill="none" stroke="#e6e6e6" stroke-width="1" class="highcharts-grid-line" d="M 67 577.5 L 1400 577.5" opacity="1"></path><path fill="none" stroke="#e6e6e6" stroke-width="1" class="highcharts-grid-line" d="M 67 505.5 L 1400 505.5" opacity="1"></path><path fill="none" stroke="#e6e6e6" stroke-width="1" class="highcharts-grid-line" d="M 67 433.5 L 1400 433.5" opacity="1"></path><path fill="none" stroke="#e6e6e6" stroke-width="1" class="highcharts-grid-line" d="M 67 360.5 L 1400 360.5" opacity="1"></path><path fill="none" stroke="#e6e6e6" stroke-width="1" class="highcharts-grid-line" d="M 67 288.5 L 1400 288.5" opacity="1"></path><path fill="none" stroke="#e6e6e6" stroke-width="1" class="highcharts-grid-line" d="M 67 216.5 L 1400 216.5" opacity="1"></path><path fill="none" stroke="#e6e6e6" stroke-width="1" class="highcharts-grid-line" d="M 67 143.5 L 1400 143.5" opacity="1"></path><path fill="none" stroke="#e6e6e6" stroke-width="1" class="highcharts-grid-line" d="M 67 70.5 L 1400 70.5" opacity="1"></path></g><rect fill="none" class="highcharts-plot-border" x="67" y="71" width="1333" height="651"></rect><g class="highcharts-axis highcharts-xaxis "><path fill="none" class="highcharts-tick" stroke="#ccd6eb" stroke-width="1" d="M 79.5 722 L 79.5 732" opacity="1"></path><path fill="none" class="highcharts-tick" stroke="#ccd6eb" stroke-width="1" d="M 193.5 722 L 193.5 732" opacity="1"></path><path fill="none" class="highcharts-tick" stroke="#ccd6eb" stroke-width="1" d="M 306.5 722 L 306.5 732" opacity="1"></path><path fill="none" class="highcharts-tick" stroke="#ccd6eb" stroke-width="1" d="M 420.5 722 L 420.5 732" opacity="1"></path><path fill="none" class="highcharts-tick" stroke="#ccd6eb" stroke-width="1" d="M 534.5 722 L 534.5 732" opacity="1"></path><path fill="none" class="highcharts-tick" stroke="#ccd6eb" stroke-width="1" d="M 647.5 722 L 647.5 732" opacity="1"></path><path fill="none" class="highcharts-tick" stroke="#ccd6eb" stroke-width="1" d="M 761.5 722 L 761.5 732" opacity="1"></path><path fill="none" class="highcharts-tick" stroke="#ccd6eb" stroke-width="1" d="M 875.5 722 L 875.5 732" opacity="1"></path><path fill="none" class="highcharts-tick" stroke="#ccd6eb" stroke-width="1" d="M 988.5 722 L 988.5 732" opacity="1"></path><path fill="none" class="highcharts-tick" stroke="#ccd6eb" stroke-width="1" d="M 1102.5 722 L 1102.5 732" opacity="1"></path><path fill="none" class="highcharts-tick" stroke="#ccd6eb" stroke-width="1" d="M 1215.5 722 L 1215.5 732" opacity="1"></path><path fill="none" class="highcharts-tick" stroke="#ccd6eb" stroke-width="1" d="M 1329.5 722 L 1329.5 732" opacity="1"></path><path fill="none" class="highcharts-axis-line" stroke="#ccd6eb" stroke-width="1" d="M 67 722.5 L 1400 722.5"></path></g><g class="highcharts-axis highcharts-yaxis "><text x="28.046875" text-anchor="middle" transform="translate(0,0) rotate(270 28.046875 396.5)" class="highcharts-axis-title" style="color:#666666;fill:#666666;" y="396.5">μg/m3</text><path fill="none" class="highcharts-axis-line" d="M 67 71 L 67 722"></path></g><g class="highcharts-series-group"><g class="highcharts-series highcharts-series-0 highcharts-area-series highcharts-color-0 " transform="translate(67,71) scale(1 1)" clip-path="url(#highcharts-ykhdgsn-8)"><path fill="url(#highcharts-ykhdgsn-9)" d="M 13.06862745098 82.19012413079997 L 69.888746803069 226.85679079674333 L 126.70886615516 210.66586659755 L 183.52898550725 242.73412081377666 L 240.34910485934 202.7635967255967 L 297.16922421142 310.58411966948336 L 353.98934356351 261.54135589603 L 410.8094629156 129.6771130878534 L 467.62958226769 237.94370409613998 L 524.44970161978 150.01280593861327 L 581.26982097187 198.47655868520667 L 638.08994032396 154.4324282325066 L 694.91005967604 273.1052413943933 L 751.73017902813 243.01300303144666 L 808.55029838022 116.62574539210004 L 865.37041773231 215.14404118841668 L 922.1905370844 161.24717610659002 L 979.01065643649 223.33738937388665 L 1035.8307757886 128.01248397844665 L 1092.6508951407 334.42527948991 L 1149.4710144928 108.98674011255332 L 1206.2911338448 109.35560302725332 L 1263.1112531969 259.43283856679 L 1319.931372549 168.6518618262566 L 1319.931372549 651 L 1263.1112531969 651 L 1206.2911338448 651 L 1149.4710144928 651 L 1092.6508951407 651 L 1035.8307757886 651 L 979.01065643649 651 L 922.1905370844 651 L 865.37041773231 651 L 808.55029838022 651 L 751.73017902813 651 L 694.91005967604 651 L 638.08994032396 651 L 581.26982097187 651 L 524.44970161978 651 L 467.62958226769 651 L 410.8094629156 651 L 353.98934356351 651 L 297.16922421142 651 L 240.34910485934 651 L 183.52898550725 651 L 126.70886615516 651 L 69.888746803069 651 L 13.06862745098 651" class="highcharts-area"></path><path fill="none" d="M 13.06862745098 82.19012413079997 L 69.888746803069 226.85679079674333 L 126.70886615516 210.66586659755 L 183.52898550725 242.73412081377666 L 240.34910485934 202.7635967255967 L 297.16922421142 310.58411966948336 L 353.98934356351 261.54135589603 L 410.8094629156 129.6771130878534 L 467.62958226769 237.94370409613998 L 524.44970161978 150.01280593861327 L 581.26982097187 198.47655868520667 L 638.08994032396 154.4324282325066 L 694.91005967604 273.1052413943933 L 751.73017902813 243.01300303144666 L 808.55029838022 116.62574539210004 L 865.37041773231 215.14404118841668 L 922.1905370844 161.24717610659002 L 979.01065643649 223.33738937388665 L 1035.8307757886 128.01248397844665 L 1092.6508951407 334.42527948991 L 1149.4710144928 108.98674011255332 L 1206.2911338448 109.35560302725332 L 1263.1112531969 259.43283856679 L 1319.931372549 168.6518618262566" class="highcharts-graph" stroke="#7cb5ec" stroke-width="1" stroke-linejoin="round" stroke-linecap="round"></path></g><g class="highcharts-markers highcharts-series-0 highcharts-area-series highcharts-color-0 " transform="translate(67,71) scale(1 1)" clip-path="none"><path fill="#7cb5ec" d="M 15 82 A 2 2 0 1 1 14.999999000000084 81.99800000033333 Z" class="highcharts-point highcharts-color-0"></path><path fill="#7cb5ec" d="M 71 227 A 2 2 0 1 1 70.99999900000009 226.99800000033332 Z" class="highcharts-point highcharts-color-0"></path><path fill="#7cb5ec" d="M 128 211 A 2 2 0 1 1 127.99999900000009 210.99800000033332 Z" class="highcharts-point highcharts-color-0"></path><path fill="#7cb5ec" d="M 185 243 A 2 2 0 1 1 184.9999990000001 242.99800000033332 Z" class="highcharts-point highcharts-color-0"></path><path fill="#7cb5ec" d="M 242 203 A 2 2 0 1 1 241.9999990000001 202.99800000033332 Z" class="highcharts-point highcharts-color-0"></path><path fill="#7cb5ec" d="M 299 311 A 2 2 0 1 1 298.99999900000006 310.9980000003333 Z" class="highcharts-point highcharts-color-0"></path><path fill="#7cb5ec" d="M 355 262 A 2 2 0 1 1 354.99999900000006 261.9980000003333 Z" class="highcharts-point highcharts-color-0"></path><path fill="#7cb5ec" d="M 412 130 A 2 2 0 1 1 411.99999900000006 129.99800000033332 Z" class="highcharts-point highcharts-color-0"></path><path fill="#7cb5ec" d="M 469 238 A 2 2 0 1 1 468.99999900000006 237.99800000033332 Z" class="highcharts-point highcharts-color-0"></path><path fill="#7cb5ec" d="M 526 150 A 2 2 0 1 1 525.9999990000001 149.99800000033332 Z" class="highcharts-point highcharts-color-0"></path><path fill="#7cb5ec" d="M 583 198 A 2 2 0 1 1 582.9999990000001 197.99800000033332 Z" class="highcharts-point highcharts-color-0"></path><path fill="#7cb5ec" d="M 640 154 A 2 2 0 1 1 639.9999990000001 153.99800000033332 Z" class="highcharts-point highcharts-color-0"></path><path fill="#7cb5ec" d="M 696 273 A 2 2 0 1 1 695.9999990000001 272.9980000003333 Z" class="highcharts-point highcharts-color-0"></path><path fill="#7cb5ec" d="M 753 243 A 2 2 0 1 1 752.9999990000001 242.99800000033332 Z" class="highcharts-point highcharts-color-0"></path><path fill="#7cb5ec" d="M 810 117 A 2 2 0 1 1 809.9999990000001 116.99800000033333 Z" class="highcharts-point highcharts-color-0"></path><path fill="#7cb5ec" d="M 867 215 A 2 2 0 1 1 866.9999990000001 214.99800000033332 Z" class="highcharts-point highcharts-color-0"></path><path fill="#7cb5ec" d="M 924 161 A 2 2 0 1 1 923.9999990000001 160.99800000033332 Z" class="highcharts-point highcharts-color-0"></path><path fill="#7cb5ec" d="M 981 223 A 2 2 0 1 1 980.9999990000001 222.99800000033332 Z" class="highcharts-point highcharts-color-0"></path><path fill="#7cb5ec" d="M 1037 128 A 2 2 0 1 1 1036.9999990000001 127.99800000033333 Z" class="highcharts-point highcharts-color-0"></path><path fill="#7cb5ec" d="M 1094 334 A 2 2 0 1 1 1093.9999990000001 333.9980000003333 Z" class="highcharts-point highcharts-color-0"></path><path fill="#7cb5ec" d="M 1151 109 A 2 2 0 1 1 1150.9999990000001 108.99800000033333 Z" class="highcharts-point highcharts-color-0"></path><path fill="#7cb5ec" d="M 1208 109 A 2 2 0 1 1 1207.9999990000001 108.99800000033333 Z" class="highcharts-point highcharts-color-0"></path><path fill="#7cb5ec" d="M 1265 259 A 2 2 0 1 1 1264.9999990000001 258.9980000003333 Z" class="highcharts-point highcharts-color-0"></path><path fill="#7cb5ec" d="M 1321 169 A 2 2 0 1 1 1320.9999990000001 168.99800000033332 Z" class="highcharts-point highcharts-color-0"></path></g></g><text x="705" text-anchor="middle" class="highcharts-title" style="color:#333333;font-size:18px;fill:#333333;" y="24"><tspan>Contaminación Ciudad Curicó</tspan></text><text x="705" text-anchor="middle" class="highcharts-subtitle" style="color:#666666;fill:#666666;" y="52"><tspan>Haga clic y arrastre en el área de trazado para acercar</tspan></text><g class="highcharts-legend" transform="translate(666,756)"><rect fill="none" class="highcharts-legend-box" rx="0" ry="0" x="0" y="0" width="78" height="29" visibility="visible"></rect><g><g><g class="highcharts-legend-item highcharts-area-series highcharts-color-0 highcharts-series-0" transform="translate(8,3)"><text x="21" style="color:#333333;font-size:12px;font-weight:bold;cursor:pointer;fill:#333333;" text-anchor="start" y="15"><tspan>MP 2.5</tspan></text><rect x="2" y="4" width="12" height="12" fill="#7cb5ec" rx="6" ry="6" class="highcharts-point"></rect></g></g></g></g><g class="highcharts-axis-labels highcharts-xaxis-labels "><text x="80.06862745098039" style="color:#666666;cursor:default;font-size:11px;fill:#666666;" text-anchor="middle" transform="translate(0,0)" y="741" opacity="1"><tspan>28. Oct</tspan></text><text x="193.7088661551577" style="color:#666666;cursor:default;font-size:11px;fill:#666666;" text-anchor="middle" transform="translate(0,0)" y="741" opacity="1"><tspan>02:00</tspan></text><text x="307.34910485933506" style="color:#666666;cursor:default;font-size:11px;fill:#666666;" text-anchor="middle" transform="translate(0,0)" y="741" opacity="1"><tspan>04:00</tspan></text><text x="420.9893435635123" style="color:#666666;cursor:default;font-size:11px;fill:#666666;" text-anchor="middle" transform="translate(0,0)" y="741" opacity="1"><tspan>06:00</tspan></text><text x="534.6295822676896" style="color:#666666;cursor:default;font-size:11px;fill:#666666;" text-anchor="middle" transform="translate(0,0)" y="741" opacity="1"><tspan>08:00</tspan></text><text x="648.2698209718669" style="color:#666666;cursor:default;font-size:11px;fill:#666666;" text-anchor="middle" transform="translate(0,0)" y="741" opacity="1"><tspan>10:00</tspan></text><text x="761.9100596760443" style="color:#666666;cursor:default;font-size:11px;fill:#666666;" text-anchor="middle" transform="translate(0,0)" y="741" opacity="1"><tspan>12:00</tspan></text><text x="875.5502983802215" style="color:#666666;cursor:default;font-size:11px;fill:#666666;" text-anchor="middle" transform="translate(0,0)" y="741" opacity="1"><tspan>14:00</tspan></text><text x="989.1905370843989" style="color:#666666;cursor:default;font-size:11px;fill:#666666;" text-anchor="middle" transform="translate(0,0)" y="741" opacity="1"><tspan>16:00</tspan></text><text x="1102.8307757885761" style="color:#666666;cursor:default;font-size:11px;fill:#666666;" text-anchor="middle" transform="translate(0,0)" y="741" opacity="1"><tspan>18:00</tspan></text><text x="1216.4710144927535" style="color:#666666;cursor:default;font-size:11px;fill:#666666;" text-anchor="middle" transform="translate(0,0)" y="741" opacity="1"><tspan>20:00</tspan></text><text x="1330.1112531969309" style="color:#666666;cursor:default;font-size:11px;fill:#666666;" text-anchor="middle" transform="translate(0,0)" y="741" opacity="1"><tspan>22:00</tspan></text></g><g class="highcharts-axis-labels highcharts-yaxis-labels "><text x="52" style="color:#666666;cursor:default;font-size:11px;fill:#666666;" text-anchor="end" transform="translate(0,0)" y="726" opacity="1"><tspan>0</tspan></text><text x="52" style="color:#666666;cursor:default;font-size:11px;fill:#666666;" text-anchor="end" transform="translate(0,0)" y="654" opacity="1"><tspan>10</tspan></text><text x="52" style="color:#666666;cursor:default;font-size:11px;fill:#666666;" text-anchor="end" transform="translate(0,0)" y="581" opacity="1"><tspan>20</tspan></text><text x="52" style="color:#666666;cursor:default;font-size:11px;fill:#666666;" text-anchor="end" transform="translate(0,0)" y="509" opacity="1"><tspan>30</tspan></text><text x="52" style="color:#666666;cursor:default;font-size:11px;fill:#666666;" text-anchor="end" transform="translate(0,0)" y="437" opacity="1"><tspan>40</tspan></text><text x="52" style="color:#666666;cursor:default;font-size:11px;fill:#666666;" text-anchor="end" transform="translate(0,0)" y="364" opacity="1"><tspan>50</tspan></text><text x="52" style="color:#666666;cursor:default;font-size:11px;fill:#666666;" text-anchor="end" transform="translate(0,0)" y="292" opacity="1"><tspan>60</tspan></text><text x="52" style="color:#666666;cursor:default;font-size:11px;fill:#666666;" text-anchor="end" transform="translate(0,0)" y="220" opacity="1"><tspan>70</tspan></text><text x="52" style="color:#666666;cursor:default;font-size:11px;fill:#666666;" text-anchor="end" transform="translate(0,0)" y="147" opacity="1"><tspan>80</tspan></text><text x="52" style="color:#666666;cursor:default;font-size:11px;fill:#666666;" text-anchor="end" transform="translate(0,0)" y="75" opacity="1"><tspan>90</tspan></text></g><text x="1400" class="highcharts-credits" text-anchor="end" style="cursor:pointer;color:#999999;font-size:9px;fill:#999999;" y="795">Highcharts.com</text></svg>